<?xml version="1.0" encoding="utf-8"?>
<!-- Generator: Adobe Illustrator 16.0.0, SVG Export Plug-In . SVG Version: 6.00 Build 0)  -->
<!DOCTYPE svg PUBLIC "-//W3C//DTD SVG 1.1//EN" "http://www.w3.org/Graphics/SVG/1.1/DTD/svg11.dtd">
<svg version="1.1" id="Layer_1" xmlns="http://www.w3.org/2000/svg" xmlns:xlink="http://www.w3.org/1999/xlink" x="0px" y="0px"
	 width="220px" height="220.6px" viewBox="0 0 220 220.6" style="enable-background:new 0 0 220 220.6;" xml:space="preserve">
<style type="text/css">
<![CDATA[
	.st0{fill:#FFFFFF;stroke:#FF8A00;stroke-width:9;stroke-miterlimit:10;}
	.st1{fill:#FF8A00;}
]]>
</style>
<circle class="st0" cx="110.1" cy="110.6" r="105"/>
<g>
	<path class="st1" d="M35,120.6v-28h11.6c2.3,0,4.1,0.3,5.3,0.8c1.2,0.5,2.2,1.4,2.9,2.7c0.7,1.3,1.1,2.7,1.1,4.2c0,2-0.6,3.7-1.8,5
		c-1.2,1.4-3.1,2.2-5.6,2.6c0.9,0.5,1.6,0.9,2.1,1.4c1,1,2,2.2,2.9,3.7l4.6,7.6h-4.4l-3.5-5.8c-1-1.7-1.8-3-2.5-3.9
		c-0.7-0.9-1.2-1.5-1.8-1.9s-1-0.6-1.6-0.7c-0.4-0.1-1-0.1-1.9-0.1h-4v12.4H35z M38.5,105H46c1.6,0,2.8-0.2,3.7-0.5
		c0.9-0.3,1.6-0.9,2-1.7c0.5-0.8,0.7-1.6,0.7-2.5c0-1.3-0.5-2.4-1.3-3.3c-0.9-0.9-2.3-1.3-4.3-1.3h-8.3V105z"/>
	<path class="st1" d="M62,120.6v-28h3.5v28H62z"/>
	<path class="st1" d="M78.3,120.6V95.9h-8.6v-3.3h20.8v3.3h-8.7v24.7H78.3z"/>
	<path class="st1" d="M91.9,120.6v-3.4l13.4-17.9c1-1.3,1.9-2.4,2.7-3.3H93.4v-3.3h18.8v3.3l-14.7,19.4l-1.6,2h16.7v3.3H91.9z"/>
	<path class="st1" d="M123,120.6V95.9h-8.6v-3.3h20.8v3.3h-8.7v24.7H123z"/>
	<path class="st1" d="M138.7,120.6v-28h11.6c2.3,0,4.1,0.3,5.3,0.8c1.2,0.5,2.2,1.4,2.9,2.7c0.7,1.3,1.1,2.7,1.1,4.2
		c0,2-0.6,3.7-1.8,5c-1.2,1.4-3.1,2.2-5.6,2.6c0.9,0.5,1.6,0.9,2.1,1.4c1,1,2,2.2,2.9,3.7l4.6,7.6h-4.4l-3.5-5.8
		c-1-1.7-1.8-3-2.5-3.9c-0.7-0.9-1.2-1.5-1.8-1.9s-1-0.6-1.6-0.7c-0.4-0.1-1-0.1-1.9-0.1h-4v12.4H138.7z M142.2,105h7.5
		c1.6,0,2.8-0.2,3.7-0.5c0.9-0.3,1.6-0.9,2-1.7c0.5-0.8,0.7-1.6,0.7-2.5c0-1.3-0.5-2.4-1.3-3.3c-0.9-0.9-2.3-1.3-4.3-1.3h-8.3V105z"
		/>
	<path class="st1" d="M164.1,107c0-4.6,1.2-8.3,3.5-10.9s5.4-3.9,9-3.9c2.4,0,4.6,0.6,6.5,1.9s3.4,3,4.4,5.2c1,2.2,1.5,4.7,1.5,7.5
		c0,2.8-0.5,5.4-1.6,7.6c-1.1,2.2-2.6,3.9-4.6,5.1c-2,1.2-4.1,1.7-6.4,1.7c-2.5,0-4.7-0.6-6.6-1.9s-3.4-3-4.4-5.2
		C164.6,111.7,164.1,109.4,164.1,107z M167.6,107c0,3.4,0.8,6,2.5,8s3.8,2.9,6.4,2.9c2.6,0,4.8-1,6.4-2.9c1.7-2,2.5-4.7,2.5-8.3
		c0-2.3-0.4-4.3-1.1-6c-0.7-1.7-1.8-3-3.2-4c-1.4-0.9-2.9-1.4-4.7-1.4c-2.5,0-4.6,0.9-6.3,2.7C168.5,99.8,167.6,102.8,167.6,107z"/>
</g>
</svg>
